<?xml version="1.0" encoding="UTF-8" standalone="no"?><!DOCTYPE svg PUBLIC "-//W3C//DTD SVG 1.1//EN" "http://www.w3.org/Graphics/SVG/1.1/DTD/svg11.dtd"><svg width="100%" height="100%" viewBox="0 0 182 142" version="1.1" xmlns="http://www.w3.org/2000/svg" xmlns:xlink="http://www.w3.org/1999/xlink" xml:space="preserve" xmlns:serif="http://www.serif.com/" style="fill-rule:evenodd;clip-rule:evenodd;stroke-linejoin:round;stroke-miterlimit:2;"><g id="v2-dark" serif:id="v2 dark"><path d="M181.137,22.415c-0,-12.257 -9.952,-22.209 -22.209,-22.209c-0,0 -136.219,0 -136.219,0c-12.257,0 -22.209,9.952 -22.209,22.209l0,96.642c0,12.258 9.952,22.209 22.209,22.209l136.219,0c12.257,0 22.209,-9.951 22.209,-22.209l-0,-96.642Zm-3,0l-0,96.642c-0,10.602 -8.608,19.209 -19.209,19.209c-0,0 -136.219,0 -136.219,0c-10.602,0 -19.209,-8.607 -19.209,-19.209c0,0 0,-96.642 0,-96.642c0,-10.601 8.607,-19.209 19.209,-19.209l136.219,0c10.601,0 19.209,8.608 19.209,19.209Z" style="fill:#bfbfbf;"/><g><path d="M90.813,119.563c5.739,0.029 13.713,0.002 21.311,0.012c10.533,-0.035 20.697,3.848 28.519,10.895c3.55,3.195 8.28,5.233 13.735,5.233c11.389,0 20.635,-9.246 20.635,-20.634c0,-11.389 -9.246,-20.635 -20.635,-20.635c-5.466,-0 -10.203,2.044 -13.719,5.288c-7.836,7.071 -18.039,10.969 -28.604,10.924c-7.386,-0.04 -15.21,-0.072 -21.237,-0.072c-6.025,-0 -13.845,0.032 -21.23,0.017c-10.558,0.045 -20.748,-3.847 -28.582,-10.916c-3.552,-3.2 -8.286,-5.241 -13.748,-5.241c-11.388,-0 -20.634,9.246 -20.634,20.635c-0,11.388 9.246,20.634 20.634,20.634c5.471,0 10.212,-2.05 13.729,-5.3c7.848,-7.092 18.074,-10.999 28.663,-10.946c7.553,0.038 15.462,0.077 21.163,0.106Zm46.374,6.879c1.433,1.005 2.812,2.102 4.125,3.285c0.314,0.283 0.637,0.555 0.97,0.818c-0.333,-0.263 -0.656,-0.535 -0.97,-0.818c-1.251,-1.127 -2.561,-2.175 -3.92,-3.141l-0.205,-0.144Zm-42.923,-7.868c0.811,0.001 1.648,0.002 2.509,0.003l-1.273,-0.001l-1.236,-0.002Zm16.434,-0.001l-1.434,-0c0,-0 1.434,0 1.434,0Zm-19.88,-6.999c-0.753,-0 -1.534,0 -2.339,0.001l1.189,-0.001l1.15,-0Zm25.078,7.152c-0.167,-0.014 -0.334,-0.027 -0.501,-0.039l-0.25,-0.017c0.334,0.022 0.668,0.048 1,0.078l-0.249,-0.022Zm-25.078,-0.163c0.359,0.002 0.726,0.004 1.102,0.005l-1.102,-0.005c-5.701,-0.029 -13.61,-0.068 -21.163,-0.106l21.163,0.106Z" style="fill:#9558b2;"/><path d="M90.813,75.231c5.739,0.029 13.713,0.001 21.311,0.011c10.533,-0.035 20.697,3.849 28.519,10.896c3.55,3.194 8.28,5.233 13.735,5.233c11.389,0 20.635,-9.246 20.635,-20.635c0,-11.388 -9.246,-20.635 -20.635,-20.635c-5.466,0 -10.203,2.045 -13.719,5.289c-7.836,7.071 -18.039,10.968 -28.604,10.923c-7.386,-0.039 -15.21,-0.071 -21.237,-0.071c-6.025,-0 -13.845,0.032 -21.23,0.017c-10.558,0.045 -20.748,-3.848 -28.582,-10.917c-3.552,-3.2 -8.286,-5.241 -13.748,-5.241c-11.388,0 -20.634,9.247 -20.634,20.635c-0,11.389 9.246,20.635 20.634,20.635c5.471,0 10.212,-2.05 13.729,-5.3c7.848,-7.093 18.074,-11 28.663,-10.947c7.553,0.038 15.462,0.078 21.163,0.107Zm48.776,8.691c0.586,0.475 1.161,0.966 1.723,1.473c0.302,0.271 0.612,0.533 0.931,0.786c-0.319,-0.253 -0.629,-0.515 -0.931,-0.786c-0.5,-0.451 -1.01,-0.889 -1.528,-1.314l-0.195,-0.159Zm-45.325,-9.68c0.811,0.001 1.648,0.002 2.509,0.002l-1.273,-0.001l-1.236,-0.001Zm-3.446,-7c-0.753,-0 -1.534,0 -2.339,0.001l1.189,-0.001l1.15,-0Zm45.336,14.165c0.139,0.091 0.277,0.184 0.415,0.277l-0.207,-0.139l-0.208,-0.138Zm-0.419,-0.273c-1.4,-0.9 -2.847,-1.717 -4.334,-2.447l-0.224,-0.109c1.641,0.794 3.234,1.693 4.768,2.692l-0.21,-0.136Zm-5.457,-2.979c0.15,0.069 0.3,0.138 0.45,0.209l-0.225,-0.105l-0.225,-0.104Zm-0.454,-0.203c-2.272,-1.006 -4.628,-1.814 -7.041,-2.417l-0.241,-0.06c2.578,0.629 5.092,1.492 7.509,2.578l-0.227,-0.101Zm-7.766,-2.592c-0.162,-0.037 -0.324,-0.074 -0.486,-0.109l-0.243,-0.053c0.325,0.069 0.649,0.143 0.971,0.219l-0.242,-0.057Zm-31.24,-1.129c0.359,0.002 0.726,0.003 1.102,0.005l-1.102,-0.005c-5.701,-0.029 -13.61,-0.069 -21.163,-0.107l21.163,0.107Z" style="fill:#cb3c33;"/><path d="M90.813,30.898c5.739,0.029 13.713,0.002 21.311,0.012c10.533,-0.035 20.697,3.849 28.519,10.896c3.55,3.194 8.28,5.233 13.735,5.233c11.389,-0 20.635,-9.246 20.635,-20.635c0,-11.389 -9.246,-20.635 -20.635,-20.635c-5.466,0 -10.203,2.044 -13.719,5.289c-7.836,7.07 -18.039,10.968 -28.604,10.923c-7.386,-0.04 -15.21,-0.072 -21.237,-0.072c-6.025,0 -13.845,0.032 -21.23,0.018c-10.558,0.044 -20.748,-3.848 -28.582,-10.917c-3.552,-3.2 -8.286,-5.241 -13.748,-5.241c-11.388,0 -20.634,9.246 -20.634,20.635c-0,11.389 9.246,20.635 20.634,20.635c5.471,-0 10.212,-2.05 13.729,-5.301c7.848,-7.092 18.074,-10.999 28.663,-10.946c7.553,0.038 15.462,0.078 21.163,0.106Zm48.58,8.534c0.654,0.524 1.294,1.067 1.919,1.631c0.299,0.268 0.605,0.528 0.921,0.778c-0.316,-0.25 -0.622,-0.51 -0.921,-0.778c-0.562,-0.507 -1.137,-0.999 -1.723,-1.474l-0.196,-0.157Zm-45.129,-9.523c0.53,0.001 1.071,0.002 1.623,0.002l-0.387,0l-1.236,-0.002Zm15,-0.001l0.42,0l-0.42,-0Zm-19.612,-6.998l0.016,-0l1.15,-0.001l-1.15,0.001l-0.016,-0Zm47.943,15.157c-0.136,-0.098 -0.272,-0.194 -0.408,-0.29l-0.205,-0.143c0.274,0.19 0.546,0.383 0.816,0.58l-0.203,-0.147Zm-1.026,-0.715c-1.449,-0.98 -2.952,-1.868 -4.502,-2.663l-0.221,-0.113c1.701,0.86 3.348,1.834 4.93,2.916l-0.207,-0.14Zm-5.168,-2.997c-0.224,-0.11 -0.448,-0.218 -0.673,-0.323l-0.225,-0.105c0.376,0.174 0.75,0.353 1.12,0.538l-0.222,-0.11Zm-40.583,-4.457c0.359,0.002 0.726,0.004 1.102,0.005l-1.102,-0.005c-5.701,-0.028 -13.61,-0.068 -21.163,-0.106l21.163,0.106Z" style="fill:#389826;"/></g><g><path d="M130.523,43.026c0.901,0 1.691,-0.603 1.929,-1.472c0.238,-0.869 -0.135,-1.79 -0.91,-2.249c-6.076,-3.598 -12.753,-5.482 -19.567,-5.445c-7.383,0.05 -15.199,0.091 -21.221,0.091c-6.027,-0 -13.85,-0.041 -21.237,-0.022c-6.749,-0.037 -13.378,1.822 -19.417,5.373c-0.778,0.457 -1.153,1.379 -0.916,2.249c0.237,0.871 1.028,1.475 1.93,1.475c-0,0 79.409,0 79.409,0Z" style="fill:#bfbfbf;"/><path d="M51.114,9.782c-0.901,-0 -1.691,0.602 -1.929,1.471c-0.238,0.87 0.134,1.791 0.91,2.25c6.076,3.597 12.752,5.482 19.567,5.445c7.383,-0.05 15.199,-0.091 21.221,-0.091c6.027,-0 13.85,0.041 21.237,0.022c6.749,0.036 13.377,-1.823 19.417,-5.373c0.777,-0.457 1.153,-1.379 0.916,-2.25c-0.237,-0.87 -1.028,-1.474 -1.93,-1.474l-79.409,-0Z" style="fill:#bfbfbf;"/><path d="M130.523,87.358c0.901,0 1.691,-0.602 1.929,-1.471c0.238,-0.869 -0.135,-1.79 -0.91,-2.25c-6.076,-3.597 -12.753,-5.482 -19.567,-5.445c-7.383,0.05 -15.199,0.091 -21.221,0.091c-6.027,0 -13.85,-0.041 -21.237,-0.022c-6.749,-0.036 -13.378,1.823 -19.417,5.373c-0.778,0.458 -1.153,1.379 -0.916,2.25c0.237,0.87 1.028,1.474 1.93,1.474l79.409,0Z" style="fill:#bfbfbf;"/><path d="M51.114,54.114c-0.901,0 -1.691,0.603 -1.929,1.472c-0.238,0.869 0.134,1.79 0.91,2.249c6.076,3.598 12.752,5.482 19.567,5.445c7.383,-0.05 15.199,-0.091 21.221,-0.091c6.027,0 13.85,0.041 21.237,0.022c6.749,0.037 13.377,-1.822 19.417,-5.373c0.777,-0.457 1.153,-1.379 0.916,-2.249c-0.237,-0.871 -1.028,-1.475 -1.93,-1.475l-79.409,0Z" style="fill:#bfbfbf;"/><path d="M130.523,131.691c0.901,-0 1.691,-0.603 1.929,-1.472c0.238,-0.869 -0.135,-1.79 -0.91,-2.249c-6.076,-3.598 -12.753,-5.482 -19.567,-5.446c-7.383,0.051 -15.199,0.092 -21.221,0.092c-6.027,-0 -13.85,-0.041 -21.237,-0.022c-6.749,-0.037 -13.378,1.822 -19.417,5.373c-0.778,0.457 -1.153,1.378 -0.916,2.249c0.237,0.871 1.028,1.475 1.93,1.475c-0,-0 79.409,-0 79.409,-0Z" style="fill:#bfbfbf;"/><path d="M51.114,98.446c-0.901,0 -1.691,0.603 -1.929,1.472c-0.238,0.869 0.134,1.79 0.91,2.249c6.076,3.598 12.752,5.483 19.567,5.446c7.383,-0.051 15.199,-0.091 21.221,-0.091c6.027,-0 13.85,0.04 21.237,0.021c6.749,0.037 13.377,-1.822 19.417,-5.372c0.777,-0.458 1.153,-1.379 0.916,-2.25c-0.237,-0.87 -1.028,-1.475 -1.93,-1.475c-0,0 -79.409,0 -79.409,0Z" style="fill:#bfbfbf;"/></g></g></svg>